# xmcd CD database file
#
# Track frame offsets:
#	150
#	10592
#	21737
#	33017
#	45415
#	56288
#	69676
#	82298
#	94210
#	108315
#	123287
#	136290
#	148531
#	161026
#
# Disc length: 2367 seconds
#
# Revision: 0
# Processed by: cddbd v1.5.2PL0 Copyright (c) Steve Scherf et al.
# Submitted via: CDex 1.51
#
DISCID=b9093d0e
DTITLE=Various Artist - Country Collection Number One Hits
DYEAR=2005
DGENRE=Country
TTITLE0=Hello Walls - Faron Young
TTITLE1=Misery Loves Company - Porter Wagoner
TTITLE2=There Goes My Everything - Jack Greene
TTITLE3=All The Time - Jack Greene
TTITLE4=Baby Baby (I Know You're a Lady) - David Houston
TTITLE5=Rose Garden - Lynn Anderson
TTITLE6=It's Four in the Morning - Faron Young
TTITLE7=The Happiest Girl in the Whole USA - Donna Fargo
TTITLE8=Teddy Bear Song - Barbara Fairchild
TTITLE9=Satin Sheets - Jeanne Pruett
TTITLE10=Devil in the Bottle - TG Sheppard
TTITLE11=Before the Next Teardrop Falls - Freddy Fender
TTITLE12=Take This Job and Shove It - Johnny Paycheck
TTITLE13=Last Cheater's Waltz - TG Sheppard
EXTD=YEAR: 2005
EXTT0=
EXTT1=
EXTT2=
EXTT3=
EXTT4=
EXTT5=
EXTT6=
EXTT7=
EXTT8=
EXTT9=
EXTT10=
EXTT11=
EXTT12=
EXTT13=
PLAYORDER=
